{"glyphs":{"0":{"ha":514,"x_min":0,"x_max":0,"o":"m 492 783 b 276 1046 492 939 436 1046 l 235 1046 b 22 782 81 1046 22 939 l 22 229 b 233 -15 22 81 89 -15 l 275 -15 b 492 229 411 -15 492 81 z m 297 229 b 254 169 297 193 289 169 b 214 229 221 169 214 197 l 214 801 b 256 865 214 844 224 865 b 297 801 289 865 297 844 z "},"1":{"ha":332,"x_min":0,"x_max":0,"o":"m 118 760 l 118 0 l 303 0 l 303 1033 l 149 1033 b 10 918 142 969 118 918 l 10 760 z "},"2":{"ha":499,"x_min":0,"x_max":0,"o":"m 243 878 b 278 831 268 878 278 864 l 278 768 b 226 618 278 731 276 701 l 138 471 b 13 106 26 286 13 231 l 13 0 l 481 0 l 481 356 l 300 356 l 300 179 l 171 179 b 279 376 171 200 163 222 b 381 508 313 419 350 467 b 471 789 468 622 471 676 l 471 847 b 261 1046 471 981 392 1046 l 224 1046 b 35 853 82 1046 35 950 l 35 671 l 208 671 l 208 831 b 243 878 208 864 217 878 z "},"3":{"ha":481,"x_min":0,"x_max":0,"o":"m 196 715 l 196 831 b 231 878 196 867 207 878 b 267 831 256 878 267 868 l 267 689 b 228 643 267 656 258 643 l 142 643 l 142 458 l 238 458 b 272 417 269 458 272 446 l 272 215 b 235 167 272 183 261 167 b 196 215 208 167 196 183 l 196 379 l 15 379 l 15 171 b 217 -15 15 76 64 -15 l 256 -15 b 461 199 381 -15 461 67 l 461 457 b 385 575 461 517 435 558 b 451 732 418 594 451 632 l 451 847 b 249 1046 451 965 389 1046 l 210 1046 b 26 849 71 1046 26 943 l 26 715 z "},"4":{"ha":504,"x_min":0,"x_max":0,"o":"m 221 407 l 136 407 b 221 658 165 485 200 590 z m 7 388 l 7 231 l 221 231 l 221 0 l 401 0 l 401 231 l 497 231 l 497 407 l 401 407 l 401 1040 l 239 1040 b 7 388 188 889 64 539 z "},"5":{"ha":485,"x_min":0,"x_max":0,"o":"m 210 460 l 210 522 b 239 572 210 544 211 572 b 271 521 269 572 271 546 l 271 208 b 236 160 271 181 263 160 b 201 208 208 160 201 179 l 201 379 l 17 379 l 17 168 b 213 -15 17 89 58 -15 l 268 -15 b 464 186 404 -15 464 83 l 464 613 b 349 747 464 676 433 747 l 332 747 b 206 650 275 747 233 699 l 206 854 l 451 854 l 451 1033 l 28 1033 l 28 460 z "},"6":{"ha":511,"x_min":0,"x_max":0,"o":"m 356 665 b 214 574 286 665 239 604 l 214 836 b 249 876 214 857 222 876 b 282 836 276 876 282 861 l 282 721 l 472 721 l 472 876 b 275 1047 472 965 407 1047 l 236 1047 b 22 828 88 1047 22 957 l 22 188 b 239 -14 22 79 90 -14 l 281 -14 b 492 193 419 -14 492 90 l 492 535 b 367 665 492 592 457 665 z m 257 161 b 214 215 219 161 214 188 l 214 454 b 257 504 214 489 229 504 b 299 453 286 504 299 490 l 299 215 b 257 161 299 190 293 161 z "},"7":{"ha":451,"x_min":0,"x_max":0,"o":"m 15 1033 l 15 715 l 185 715 l 185 867 l 294 867 b 188 474 294 826 288 776 b 113 106 124 281 113 186 l 113 0 l 335 0 l 335 124 b 379 531 335 203 347 351 b 440 867 425 769 425 764 l 440 1033 z "},"8":{"ha":499,"x_min":0,"x_max":0,"o":"m 469 850 b 263 1046 469 960 407 1046 l 231 1046 b 29 853 79 1046 29 950 l 29 701 b 101 564 29 629 63 585 b 19 418 50 536 19 490 l 19 200 b 229 -15 19 65 85 -15 l 268 -15 b 479 199 410 -14 479 75 l 479 418 b 397 564 479 492 447 540 b 469 701 432 585 469 629 z m 288 207 b 249 161 288 178 275 161 b 211 207 222 161 211 181 l 211 410 b 249 461 211 446 221 461 b 288 410 278 461 288 443 z m 285 675 b 250 632 285 649 274 632 b 214 676 224 632 214 650 l 214 839 b 249 883 214 865 224 883 b 285 839 274 883 285 867 z "},"9":{"ha":511,"x_min":0,"x_max":0,"o":"m 160 365 b 296 457 224 365 274 426 l 296 194 b 264 154 296 174 290 154 b 229 194 235 154 229 171 l 229 310 l 39 310 l 39 146 b 242 -15 39 53 96 -15 l 283 -15 b 489 182 429 -15 489 74 l 489 849 b 265 1046 489 954 422 1046 l 224 1046 b 19 844 75 1046 19 942 l 19 522 b 149 365 19 449 58 365 z m 253 871 b 296 815 292 871 296 844 l 296 576 b 253 525 296 542 282 525 b 211 578 225 525 211 540 l 211 815 b 253 871 211 842 217 871 z "},"!":{"ha":222,"x_min":0,"x_max":0,"o":"m 193 200 l 28 200 l 28 0 l 193 0 z m 10 1033 l 75 232 l 146 232 l 211 1033 z "},"\"":{"ha":317,"x_min":0,"x_max":0,"o":"m 144 1033 l 18 1033 l 18 768 l 144 768 z m 299 1033 l 172 1033 l 172 768 l 299 768 z "},"'":{"ha":165,"x_min":0,"x_max":0,"o":"m 147 1033 l 18 1033 l 18 768 l 147 768 z "},",":{"ha":201,"x_min":0,"x_max":0,"o":"m 140 -132 b 183 53 157 -97 183 -35 l 183 200 l 18 200 l 18 0 l 82 0 b 47 -132 81 -47 60 -103 z "},"-":{"ha":249,"x_min":0,"x_max":0,"o":"m 18 499 l 18 331 l 231 331 l 231 499 z "},".":{"ha":201,"x_min":0,"x_max":0,"o":"m 183 200 l 18 200 l 18 0 l 183 0 z "},"?":{"ha":457,"x_min":0,"x_max":0,"o":"m 276 232 l 276 360 b 311 478 276 425 283 439 l 379 571 b 442 772 431 638 442 689 l 442 844 b 242 1046 442 967 392 1046 l 204 1046 b 15 835 46 1046 15 950 l 15 671 l 188 671 l 188 829 b 222 878 188 864 194 878 b 257 829 249 878 257 865 l 257 761 b 228 643 257 715 254 685 l 179 565 b 132 410 140 503 132 476 l 132 232 z m 288 200 l 122 200 l 122 0 l 288 0 z "},"A":{"ha":479,"x_min":0,"x_max":0,"o":"m 306 0 l 485 0 l 344 1033 l 125 1033 l -6 0 l 158 0 l 175 174 l 286 174 z m 229 706 l 268 351 l 193 351 z "},"B":{"ha":517,"x_min":0,"x_max":0,"o":"m 26 0 l 331 0 b 500 232 443 0 500 69 l 500 404 b 397 567 500 514 450 553 b 485 711 435 579 485 626 l 485 849 b 306 1033 485 985 429 1033 l 26 1033 z m 256 463 b 310 400 297 463 310 443 l 310 232 b 263 164 310 174 293 164 l 211 164 l 211 463 z m 256 875 b 303 819 290 875 303 857 l 303 690 b 253 629 303 643 283 629 l 211 629 l 211 875 z "},"C":{"ha":511,"x_min":0,"x_max":0,"o":"m 308 228 b 263 165 308 190 296 165 b 215 228 229 165 215 188 l 215 811 b 261 871 215 851 226 871 b 308 811 296 871 308 850 l 308 644 l 492 644 l 492 818 b 278 1046 492 936 454 1046 l 240 1046 b 22 811 76 1046 22 936 l 22 228 b 240 -17 22 99 63 -17 l 278 -17 b 492 222 442 -17 492 99 l 492 456 l 308 456 z "},"D":{"ha":514,"x_min":0,"x_max":0,"o":"m 26 0 l 289 0 b 490 229 440 0 490 82 l 490 813 b 289 1033 490 969 426 1033 l 26 1033 z m 211 869 l 253 869 b 301 800 288 869 301 850 l 301 244 b 247 172 301 194 289 172 l 211 172 z "},"E":{"ha":432,"x_min":0,"x_max":0,"o":"m 26 1033 l 26 0 l 422 0 l 422 186 l 211 186 l 211 440 l 369 440 l 369 626 l 211 626 l 211 851 l 413 851 l 413 1033 z "},"F":{"ha":433,"x_min":0,"x_max":0,"o":"m 26 0 l 211 0 l 211 442 l 367 442 l 367 628 l 211 628 l 211 853 l 422 853 l 422 1033 l 26 1033 z "},"G":{"ha":519,"x_min":0,"x_max":0,"o":"m 204 -14 b 357 99 296 -14 340 64 b 385 0 368 67 379 24 l 497 0 l 497 625 l 251 625 l 251 451 l 319 451 l 319 229 b 265 165 319 188 300 165 b 215 232 233 165 215 188 l 215 807 b 261 872 215 850 229 872 b 308 807 299 872 308 849 l 308 692 l 489 692 l 489 806 b 275 1046 489 929 457 1046 l 238 1046 b 22 804 75 1046 22 932 l 22 189 b 190 -14 22 79 82 -14 z "},"H":{"ha":519,"x_min":0,"x_max":0,"o":"m 211 436 l 308 436 l 308 0 l 493 0 l 493 1033 l 308 1033 l 308 639 l 211 639 l 211 1033 l 26 1033 l 26 0 l 211 0 z "},"I":{"ha":238,"x_min":0,"x_max":0,"o":"m 211 1033 l 26 1033 l 26 0 l 211 0 z "},"J":{"ha":486,"x_min":0,"x_max":0,"o":"m 15 454 l 15 190 b 204 -11 15 46 82 -11 l 265 -11 b 461 210 388 -11 461 67 l 461 1033 l 269 1033 l 269 215 b 235 169 269 189 260 169 l 229 169 b 193 215 203 169 193 186 l 193 454 z "},"K":{"ha":517,"x_min":0,"x_max":0,"o":"m 211 438 l 335 0 l 529 0 l 368 564 l 514 1033 l 332 1033 l 211 636 l 211 1033 l 26 1033 l 26 0 l 211 0 z "},"L":{"ha":417,"x_min":0,"x_max":0,"o":"m 26 1033 l 26 0 l 407 0 l 407 186 l 211 186 l 211 1033 z "},"M":{"ha":635,"x_min":0,"x_max":0,"o":"m 26 0 l 188 0 l 188 611 l 281 0 l 350 0 l 442 611 l 442 0 l 608 0 l 608 1033 l 396 1033 l 325 511 l 254 1033 l 26 1033 z "},"N":{"ha":517,"x_min":0,"x_max":0,"o":"m 26 1033 l 26 0 l 190 0 l 190 567 l 333 0 l 490 0 l 490 1033 l 326 1033 l 326 506 l 200 1033 z "},"O":{"ha":529,"x_min":0,"x_max":0,"o":"m 507 783 b 286 1046 507 942 449 1046 l 244 1046 b 22 782 85 1046 22 942 l 22 236 b 246 -15 22 75 100 -15 l 288 -15 b 507 236 426 -15 507 85 z m 314 231 b 267 169 314 199 304 169 b 215 231 228 169 215 199 l 215 797 b 265 865 215 843 229 865 b 314 797 299 865 314 843 z "},"P":{"ha":496,"x_min":0,"x_max":0,"o":"m 299 414 b 479 622 428 414 479 496 l 479 829 b 289 1033 479 956 446 1033 l 26 1033 l 26 0 l 211 0 l 211 414 z m 211 874 l 246 874 b 293 813 288 874 293 849 l 293 640 b 246 582 293 608 288 582 l 211 582 z "},"Q":{"ha":529,"x_min":0,"x_max":0,"o":"m 507 783 b 286 1046 507 942 449 1046 l 244 1046 b 22 782 85 1046 22 942 l 22 236 b 203 -12 22 92 85 4 l 203 -215 l 433 -215 l 344 -8 b 507 236 449 15 507 107 z m 314 231 b 267 169 314 199 304 169 b 215 231 228 169 215 199 l 215 797 b 265 865 215 843 229 865 b 314 797 299 865 314 843 z "},"R":{"ha":507,"x_min":0,"x_max":0,"o":"m 211 874 l 253 874 b 299 815 290 874 299 860 l 299 675 b 247 613 299 626 283 613 l 211 613 z m 211 442 l 250 442 b 299 381 288 442 299 428 l 299 79 b 315 0 299 33 307 11 l 500 0 l 500 7 b 485 83 493 19 485 39 l 485 435 b 406 557 485 513 436 546 b 488 696 440 571 488 613 l 488 861 b 318 1033 488 971 431 1033 l 26 1033 l 26 0 l 211 0 z "},"S":{"ha":493,"x_min":0,"x_max":0,"o":"m 231 1046 b 21 840 101 1046 21 972 l 21 796 b 119 533 21 699 43 617 l 226 415 b 286 254 281 356 286 326 l 286 235 b 240 160 286 185 272 160 b 193 222 207 160 193 181 l 193 388 l 11 388 l 11 201 b 222 -12 11 63 82 -12 l 258 -12 b 483 243 411 -12 483 89 l 483 292 b 371 557 483 379 464 453 l 265 675 b 208 808 219 726 208 760 l 208 832 b 249 888 208 867 217 888 b 289 833 282 888 289 867 l 289 704 l 467 704 l 467 843 b 268 1046 467 979 413 1046 z "},"T":{"ha":465,"x_min":0,"x_max":0,"o":"m 8 1033 l 8 851 l 140 851 l 140 0 l 325 0 l 325 851 l 457 851 l 457 1033 z "},"U":{"ha":521,"x_min":0,"x_max":0,"o":"m 25 240 b 236 -15 25 71 101 -15 l 282 -15 b 496 240 413 -15 496 71 l 496 1033 l 306 1033 l 306 233 b 261 169 306 193 293 169 b 215 233 229 169 215 193 l 215 1033 l 25 1033 z "},"V":{"ha":496,"x_min":0,"x_max":0,"o":"m 133 0 l 368 0 l 500 1033 l 324 1033 l 256 340 l 188 1033 l -4 1033 z "},"W":{"ha":789,"x_min":0,"x_max":0,"o":"m 313 1033 l 246 371 l 188 1033 l -4 1033 l 125 0 l 343 0 l 397 568 l 451 0 l 661 0 l 793 1033 l 615 1033 l 554 378 l 489 1033 z "},"X":{"ha":497,"x_min":0,"x_max":0,"o":"m 124 553 l -7 0 l 174 0 l 247 358 l 318 0 l 504 0 l 375 553 l 485 1033 l 310 1033 l 254 724 l 197 1033 l 11 1033 z "},"Y":{"ha":454,"x_min":0,"x_max":0,"o":"m 465 1033 l 299 1033 l 236 667 l 174 1033 l -11 1033 l 142 400 l 142 0 l 326 0 l 326 407 z "},"Z":{"ha":458,"x_min":0,"x_max":0,"o":"m 25 1033 l 25 856 l 235 856 l 10 167 l 10 0 l 449 0 l 449 181 l 208 181 l 433 869 l 433 1033 z "},"a":{"ha":465,"x_min":0,"x_max":0,"o":"m 250 186 b 217 142 250 158 240 142 b 188 186 194 142 188 158 l 188 276 b 204 333 188 306 192 318 b 250 368 217 349 240 363 z m 17 122 b 118 -7 17 57 50 -7 l 124 -7 b 250 85 189 -7 231 49 b 301 0 250 24 267 0 l 467 0 l 467 158 l 447 158 b 421 179 425 158 421 164 l 421 592 b 232 756 421 688 381 756 l 200 756 b 25 608 57 756 25 674 l 25 506 l 183 506 l 183 579 b 214 619 183 606 190 619 l 219 619 b 250 579 239 619 250 611 l 250 539 b 239 511 250 519 246 515 b 94 438 215 497 128 458 b 17 285 42 404 17 360 z "},"b":{"ha":467,"x_min":0,"x_max":0,"o":"m 22 1033 l 22 0 l 147 0 b 165 100 147 7 157 71 b 306 -12 194 49 229 -12 l 308 -12 b 446 154 389 -12 446 74 l 446 624 b 335 756 446 689 407 756 l 326 756 b 200 664 261 756 213 685 l 200 1033 z m 200 554 b 232 603 200 581 206 603 b 267 554 254 603 267 593 l 267 188 b 233 142 267 161 257 142 b 200 190 210 142 200 163 z "},"c":{"ha":442,"x_min":0,"x_max":0,"o":"m 261 335 l 261 185 b 228 142 261 158 253 142 b 197 188 203 142 197 160 l 197 564 b 229 615 197 597 203 615 b 263 563 257 615 263 594 l 263 457 l 426 457 l 426 581 b 246 761 426 683 383 761 l 211 761 b 18 556 74 761 18 681 l 18 179 b 214 -15 18 68 74 -15 l 243 -15 b 426 174 372 -15 426 71 l 426 335 z "},"d":{"ha":472,"x_min":0,"x_max":0,"o":"m 272 1033 l 272 664 b 139 756 251 697 208 756 l 132 756 b 21 607 58 756 21 678 l 21 144 b 146 -15 21 58 71 -15 l 149 -15 b 272 83 211 -15 256 49 l 272 0 l 450 0 l 450 1033 z m 272 199 b 235 140 272 163 263 140 b 200 192 208 140 200 160 l 200 551 b 235 603 200 586 210 603 b 272 544 264 603 272 579 z "},"e":{"ha":443,"x_min":0,"x_max":0,"o":"m 239 761 l 206 761 b 18 574 71 761 18 675 l 18 163 b 206 -14 18 47 94 -14 l 239 -14 b 426 163 344 -14 426 46 l 426 299 l 256 299 l 256 188 b 224 142 256 160 247 142 b 189 188 197 142 189 158 l 189 350 l 426 350 l 426 571 b 239 761 426 696 364 761 z m 189 574 b 225 624 189 604 193 624 b 261 574 254 624 261 604 l 261 483 l 189 483 z "},"f":{"ha":375,"x_min":0,"x_max":0,"o":"m 365 1033 l 207 1033 b 93 931 126 1033 93 979 l 93 747 l 6 747 l 6 582 l 93 582 l 93 0 l 269 0 l 269 582 l 365 582 l 365 747 l 269 747 l 269 844 b 297 876 269 867 274 876 l 365 876 z "},"g":{"ha":469,"x_min":0,"x_max":0,"o":"m 269 -90 b 236 -128 269 -115 263 -128 l 229 -128 b 199 -96 204 -128 199 -115 l 199 -35 l 28 -35 l 28 -135 b 221 -271 28 -211 68 -271 l 246 -271 b 447 -103 411 -271 447 -179 l 447 747 l 272 747 l 272 657 b 140 751 240 708 203 751 l 139 751 b 21 578 61 751 21 681 l 21 132 b 149 -14 21 44 76 -14 b 269 83 204 -14 242 32 z m 269 179 b 235 133 269 153 257 133 b 201 178 208 133 201 153 l 201 556 b 235 601 201 582 210 601 b 269 554 264 601 269 578 z "},"h":{"ha":472,"x_min":0,"x_max":0,"o":"m 22 0 l 200 0 l 200 547 b 236 594 200 575 207 594 b 271 553 264 594 271 575 l 271 0 l 450 0 l 450 633 b 340 750 450 700 408 750 l 333 750 b 200 661 269 750 228 703 l 200 1033 l 22 1033 z "},"i":{"ha":222,"x_min":0,"x_max":0,"o":"m 200 747 l 22 747 l 22 0 l 200 0 z m 200 958 l 22 958 l 22 783 l 200 783 z "},"j":{"ha":224,"x_min":0,"x_max":0,"o":"m 201 958 l 24 958 l 24 783 l 201 783 z m -74 -96 l -74 -261 l 99 -261 b 201 -161 163 -261 201 -215 l 201 747 l 24 747 l 24 -67 b -1 -96 24 -90 17 -96 z "},"k":{"ha":475,"x_min":0,"x_max":0,"o":"m 200 488 l 200 1033 l 22 1033 l 22 0 l 200 0 l 200 332 l 307 0 l 483 0 l 342 433 l 474 747 l 304 747 z "},"l":{"ha":222,"x_min":0,"x_max":0,"o":"m 200 1033 l 22 1033 l 22 0 l 200 0 z "},"m":{"ha":711,"x_min":0,"x_max":0,"o":"m 22 0 l 200 0 l 200 544 b 232 594 200 575 206 594 b 267 544 263 594 267 574 l 267 0 l 444 0 l 444 556 b 478 594 446 579 453 594 b 511 544 507 594 511 574 l 511 0 l 689 0 l 689 633 b 582 753 689 700 651 753 l 575 753 b 442 661 513 753 469 703 b 332 753 431 710 393 753 l 326 753 b 199 660 267 753 221 694 l 199 747 l 22 747 z "},"n":{"ha":472,"x_min":0,"x_max":0,"o":"m 22 0 l 200 0 l 200 544 b 236 594 200 575 207 594 b 271 550 264 594 271 575 l 271 0 l 450 0 l 450 625 b 343 750 450 671 426 750 l 333 750 b 199 657 272 750 232 707 l 199 747 l 22 747 z "},"o":{"ha":468,"x_min":0,"x_max":0,"o":"m 18 197 b 213 -14 18 78 76 -14 l 254 -14 b 450 200 376 -14 450 78 l 450 554 b 254 761 450 686 376 761 l 213 761 b 18 551 92 761 18 686 z m 197 556 b 233 607 197 586 206 607 b 271 556 263 607 271 586 l 271 200 b 233 147 271 172 264 147 b 197 200 204 147 197 171 z "},"p":{"ha":472,"x_min":0,"x_max":0,"o":"m 22 747 l 22 -261 l 200 -261 l 200 65 b 324 -15 229 21 268 -15 l 326 -15 b 451 150 393 -15 451 50 l 451 596 b 333 756 451 688 414 756 l 331 756 b 200 665 265 756 226 708 l 200 747 z m 200 558 b 235 606 200 586 210 606 b 269 558 261 606 269 588 l 269 179 b 235 131 269 150 261 131 b 200 181 215 131 200 147 z "},"q":{"ha":472,"x_min":0,"x_max":0,"o":"m 328 747 b 306 639 324 704 314 661 b 169 756 276 694 239 756 l 158 756 b 21 574 53 756 21 667 l 21 143 b 139 -14 21 65 67 -14 l 147 -14 b 272 82 211 -14 253 46 l 272 -261 l 450 -261 l 450 747 z m 272 188 b 236 133 272 154 261 133 b 201 182 214 133 201 149 l 201 553 b 235 603 201 581 210 603 b 272 553 260 603 272 585 z "},"r":{"ha":422,"x_min":0,"x_max":0,"o":"m 199 747 l 22 747 l 22 0 l 200 0 l 200 560 b 222 596 200 583 204 596 b 244 560 240 596 244 585 l 244 389 l 410 389 l 410 660 b 325 751 410 715 385 751 l 317 751 b 199 654 243 751 211 685 z "},"s":{"ha":414,"x_min":0,"x_max":0,"o":"m 399 619 b 229 761 399 701 356 761 l 192 761 b 17 594 74 761 17 694 l 17 571 b 100 374 17 493 33 438 l 194 283 b 233 190 228 251 233 226 l 233 174 b 204 131 233 147 225 131 l 203 131 b 171 172 182 131 171 144 l 171 272 l 7 272 l 7 150 b 188 -12 7 60 58 -12 l 224 -12 b 408 179 351 -12 408 75 l 408 204 b 313 411 408 283 389 335 l 214 508 b 182 581 189 533 182 547 l 182 596 b 211 635 182 618 188 635 b 240 596 233 635 240 619 l 240 518 l 399 518 z "},"t":{"ha":365,"x_min":0,"x_max":0,"o":"m 353 0 l 353 168 l 293 168 b 267 199 269 168 267 178 l 267 582 l 353 582 l 353 747 l 267 747 l 267 994 l 90 994 l 90 747 l 6 747 l 6 582 l 90 582 l 90 92 b 175 0 90 39 126 0 z "},"u":{"ha":465,"x_min":0,"x_max":0,"o":"m 443 747 l 267 747 l 267 203 b 232 153 267 174 260 153 b 201 199 208 153 201 174 l 201 747 l 22 747 l 22 126 b 131 -3 22 67 60 -3 l 136 -3 b 271 92 200 -3 238 42 l 271 0 l 443 0 z "},"v":{"ha":429,"x_min":0,"x_max":0,"o":"m 108 0 l 313 0 l 435 747 l 265 747 l 215 271 l 167 747 l -6 747 z "},"w":{"ha":686,"x_min":0,"x_max":0,"o":"m 297 0 l 344 406 l 393 0 l 578 0 l 692 747 l 525 747 l 476 279 l 426 747 l 269 747 l 218 285 l 169 747 l -6 747 l 107 0 z "},"x":{"ha":432,"x_min":0,"x_max":0,"o":"m 101 401 l -6 0 l 160 0 l 215 236 l 268 0 l 438 0 l 331 407 l 425 747 l 263 747 l 219 533 l 171 747 l 1 747 z "},"y":{"ha":432,"x_min":0,"x_max":0,"o":"m 124 13 b 125 -29 126 -7 126 -14 l 122 -58 b 92 -96 119 -85 115 -96 l 18 -96 l 18 -261 l 179 -261 b 282 -149 233 -261 268 -226 l 439 747 l 268 747 l 219 335 l 169 747 l -6 747 z "},"z":{"ha":369,"x_min":0,"x_max":0,"o":"m 19 747 l 19 592 l 179 592 l 6 149 l 6 0 l 364 0 l 364 158 l 182 158 l 354 600 l 354 747 z "},"‘":{"ha":188,"x_min":0,"x_max":0,"o":"m 50 1033 b 17 871 38 1004 17 940 l 17 728 l 171 728 l 171 906 l 111 906 b 138 1033 113 943 125 994 z "},"’":{"ha":188,"x_min":0,"x_max":0,"o":"m 138 728 b 171 890 150 757 171 821 l 171 1033 l 17 1033 l 17 856 l 76 856 b 50 728 75 818 63 767 z "},"“":{"ha":365,"x_min":0,"x_max":0,"o":"m 50 1033 b 17 871 38 1004 17 940 l 17 728 l 171 728 l 171 906 l 111 906 b 138 1033 113 943 125 994 z m 228 1033 b 194 871 215 1004 194 940 l 194 728 l 349 728 l 349 906 l 289 906 b 315 1033 290 943 303 994 z "},"”":{"ha":365,"x_min":0,"x_max":0,"o":"m 138 728 b 171 890 150 757 171 821 l 171 1033 l 17 1033 l 17 856 l 76 856 b 50 728 75 818 63 767 z m 315 728 b 349 890 328 757 349 821 l 349 1033 l 194 1033 l 194 856 l 254 856 b 228 728 253 818 240 767 z "}," ":{"ha":143,"x_min":0,"x_max":0,"o":""}}}
